<svg width="20" height="21" viewBox="0 0 20 21" fill="none" xmlns="http://www.w3.org/2000/svg">
<path d="M14.1667 3.4168C14.1667 3.18668 13.9801 3.00013 13.75 3.00013H11.6667C9.48276 2.89134 7.62106 4.56687 7.5 6.75013V9.00013H5.41667C5.18655 9.00013 5 9.18668 5 9.4168V11.5835C5 11.8136 5.18655 12.0001 5.41667 12.0001H7.5V17.5835C7.5 17.8136 7.68655 18.0001 7.91667 18.0001H10.4167C10.6468 18.0001 10.8333 17.8136 10.8333 17.5835V12.0001H13.0167C13.2073 12.0029 13.3755 11.8759 13.425 11.6918L14.025 9.52513C14.0586 9.40035 14.0324 9.26705 13.9541 9.16427C13.8758 9.06149 13.7542 9.00085 13.625 9.00013H10.8333V6.75013C10.8763 6.32271 11.2371 5.99798 11.6667 6.00013H13.75C13.9801 6.00013 14.1667 5.81358 14.1667 5.58346V3.4168Z" fill="#1877F2"/>
</svg>
