<svg width="20" height="21" viewBox="0 0 20 21" fill="none" xmlns="http://www.w3.org/2000/svg">
<path d="M6.73359 17.1667C9.2231 17.25 11.6405 16.323 13.436 14.5965C15.2315 12.87 16.2526 10.4909 16.2669 8C16.8316 7.30117 17.251 6.49652 17.5003 5.63333C17.5383 5.49402 17.491 5.34537 17.3795 5.25364C17.2679 5.1619 17.113 5.14416 16.9836 5.20833C16.3778 5.49994 15.6535 5.37251 15.1836 4.89166C14.5926 4.24444 13.7646 3.86413 12.8886 3.83744C12.0125 3.81075 11.1629 4.13995 10.5336 4.75C9.66606 5.59016 9.30237 6.82356 9.57526 8C6.78359 8.16666 4.86693 6.84166 3.33359 5.025C3.23947 4.9184 3.09122 4.87756 2.95578 4.9209C2.82034 4.96424 2.72335 5.08356 2.70859 5.225C2.11036 8.54347 3.63931 11.8839 6.54193 13.6C5.59162 14.6899 4.2571 15.3705 2.81693 15.5C2.65874 15.5262 2.53474 15.6501 2.50838 15.8083C2.48202 15.9665 2.55913 16.1239 2.70026 16.2C3.95319 16.8261 5.33295 17.1568 6.73359 17.1667Z" fill="#00AAEC"/>
</svg>
