<svg width="25" height="24" viewBox="0 0 25 24" fill="none" xmlns="http://www.w3.org/2000/svg">
<path d="M23.2809 12H9.56665" stroke="#3A3A3A" stroke-width="1.71429" stroke-linecap="round" stroke-linejoin="round"/>
<path d="M12.9952 8.57129L9.56665 11.9999L12.9952 15.4284" stroke="#3A3A3A" stroke-width="1.71429" stroke-linecap="round" stroke-linejoin="round"/>
<path d="M21.5324 18.0003C20.2347 20.0311 18.3136 21.5864 16.0571 22.433C13.8007 23.2796 11.3307 23.3718 9.01739 22.6958C6.70413 22.0198 4.67238 20.6121 3.22686 18.6837C1.78135 16.7553 1 14.4103 1 12.0003C1 9.59027 1.78135 7.24522 3.22686 5.31684C4.67238 3.38847 6.70413 1.98072 9.01739 1.30473C11.3307 0.628749 13.8007 0.720969 16.0571 1.56756C18.3136 2.41416 20.2347 3.96949 21.5324 6.00028" stroke="#3A3A3A" stroke-width="1.71429" stroke-linecap="round" stroke-linejoin="round"/>
</svg>
